<svg id="i_linelogo3" xmlns="http://www.w3.org/2000/svg" width="50" height="50" viewBox="0 0 50 50">
  <rect id="bg28x28" width="50" height="50" fill="#fff" opacity="0"/>
  <g id="i_linelogo" transform="translate(0)">
    <rect id="re01" width="50" height="50" rx="9" transform="translate(0 0)" fill="#51455e"/>
    <path id="re02" d="M30.573,13.56c-10.907,0-19.783,7.251-19.783,16.159,0,7.984,7.041,14.67,16.547,15.94.644.14,1.517.43,1.742.98a4.141,4.141,0,0,1,.065,1.793l-.271,1.69c-.075.5-.4,1.966,1.728,1.069S42,44.427,46.158,39.622c2.843-3.133,4.2-6.345,4.2-9.9C50.36,20.811,41.489,13.56,30.573,13.56ZM22.831,35.037H18.9A1.046,1.046,0,0,1,17.859,34V26.059a1.041,1.041,0,1,1,2.078,0v6.873h2.895a1.046,1.046,0,0,1,0,2.087ZM26.9,34a1.041,1.041,0,1,1-2.078,0V26.059a1.041,1.041,0,1,1,2.078,0Zm9.464,0a1.051,1.051,0,0,1-.728.971,1.106,1.106,0,0,1-.327.047,1.018,1.018,0,0,1-.84-.416l-4.015-5.5v4.874a1.037,1.037,0,1,1-2.073,0V26.036a1.041,1.041,0,0,1,.719-.962.976.976,0,0,1,.322-.056,1.065,1.065,0,0,1,.817.425l4.057,5.523V26.059a1.041,1.041,0,1,1,2.078,0Zm6.354-5.024a1.046,1.046,0,1,1,0,2.092H39.836v1.868h2.895a1.046,1.046,0,0,1,0,2.087H38.785a1.046,1.046,0,0,1-1.037-1.041V26.04a1.051,1.051,0,0,1,1.041-1.046h3.931a1.046,1.046,0,0,1,0,2.092H39.836v1.868Z" transform="translate(-5.752 -7.229)" fill="#141414"/>
  </g>
</svg>
