<svg id="i_twitter3" xmlns="http://www.w3.org/2000/svg" width="50" height="50" viewBox="0 0 50 50">
  <rect id="re01" width="50" height="50" rx="9" fill="#51455e"/>
  <path id="i_twitter" d="M790,223.078a13.678,13.678,0,0,1-3.78,1.036,6.523,6.523,0,0,0,2.886-3.626,13.106,13.106,0,0,1-4.16,1.588,6.56,6.56,0,0,0-11.348,4.486,6.765,6.765,0,0,0,.152,1.5,18.57,18.57,0,0,1-13.522-6.862,6.562,6.562,0,0,0,2.016,8.768,6.481,6.481,0,0,1-2.964-.808v.072a6.59,6.59,0,0,0,5.256,6.446,6.545,6.545,0,0,1-1.72.216,5.806,5.806,0,0,1-1.242-.112,6.623,6.623,0,0,0,6.13,4.57,13.182,13.182,0,0,1-8.134,2.8,12.3,12.3,0,0,1-1.57-.09A18.469,18.469,0,0,0,768.064,246c12.072,0,18.672-10,18.672-18.668,0-.29-.01-.57-.024-.848A13.092,13.092,0,0,0,790,223.078Z" transform="translate(-747 -207)" fill="#141414"/>
</svg>
