<svg xmlns="http://www.w3.org/2000/svg" width="30" height="30" viewBox="0 0 30 30">
  <g id="m2_close2" transform="translate(-274 -693)">
    <circle id="椭圆_23" data-name="椭圆 23" cx="15" cy="15" r="15" transform="translate(274 693)"/>
    <path id="路径_5546" data-name="路径 5546" d="M8.8,8.118,14.721,1.69a1.025,1.025,0,0,0,0-1.379.953.953,0,0,0-1.409,0L7.494,6.631,1.675.311A.965.965,0,0,0,.972,0,.964.964,0,0,0,.267.312a1.025,1.025,0,0,0,0,1.379L6.183,8.118.266,14.546a1.023,1.023,0,0,0,0,1.377.952.952,0,0,0,1.41,0L7.494,9.6l5.817,6.318a.952.952,0,0,0,1.41,0,1.026,1.026,0,0,0,0-1.379Z" transform="translate(281.859 699.964)" fill="#fff"/>
  </g>
</svg>
